<svg class="svg-icon" style="width: 1em;height: 1em;vertical-align: middle;fill: currentColor;overflow: hidden;" viewBox="0 0 1024 1024" version="1.1" xmlns="http://www.w3.org/2000/svg"><path d="M450.060488 708.807805a196.308293 195.80878 90 1 0 391.617561 0 196.308293 195.80878 90 1 0-391.617561 0Z" fill="#F4EDFF" /><path d="M744.474974 700.605815l-9.017194 14.214119c-18.986459 29.738958-31.86688 48.508628-57.02731 83.300651a352.612652 352.612652 0 0 1-23.604948 29.249436c-32.124628 35.705132-68.549058 61.535906-106.330162 79.080773-22.853682 10.612636-41.289678 16.13824-52.498732 18.171255-8.105085 1.470564-15.8725-3.939153-17.348058-12.081202-1.47456-8.142049 3.900191-15.935438 12.006275-17.406002l1.633405-0.332675c2.267785-0.498513 5.78535-1.393639 10.386856-2.773292 10.112125-3.03104 21.31918-7.22994 33.266514-12.777522 34.300503-15.928445 67.444137-39.433491 96.733533-71.9867a322.736827 322.736827 0 0 0 21.604902-26.772855l10.409834-14.462876c21.568937-30.140566 33.633155-48.306825 54.5787-81.49042 18.719719-29.658037 18.947497-46.41767-3.155918-60.542876l-1.247781 1.745296-49.793374 68.744866c-4.796316 6.621534-14.042287 8.086103-20.649834 3.269807-6.193951-4.513592-7.872312-12.945358-4.10599-19.438018l0.826193-1.270759 49.794373-68.743867c19.574884-27.025608 21.056437-40.725229 6.014126-54.035231-5.696437-5.040078-11.241022-8.489709-16.49589-10.669581-3.072999 5.741393-6.731426 11.588683-10.929327 17.518892l-1.708332 2.377678-46.951149 64.385124c-4.879235 6.689467-14.271063 8.177015-20.978513 3.321756-6.28786-4.551555-7.983204-13.061245-4.150947-19.620839l0.84018-1.282747 46.952148-64.385124c4.643465-6.36878 8.398798-12.275013 11.251013-17.754662a14.809538 14.809538 0 0 1 5.482646-13.726595c3.390689-13.12718-0.209795-23.239305-11.07019-31.100628-10.156082-7.35182-19.477979-12.41088-27.715933-15.611754l-70.094549 97.357924a14.793553 14.793553 0 0 1-20.789697 3.292784c-6.240905-4.576531-7.938248-13.114193-4.150946-19.683777l0.830189-1.286744 73.25646-101.748636a14.958392 14.958392 0 0 1 5.412714-7.518657l60.616804-84.192781c11.790486-16.377007 9.97426-28.439227-9.172043-42.477518-18.508925-13.569748-30.273436-12.167118-41.688288 2.735329l-1.178849 1.589448-206.350486 286.610107a14.793553 14.793553 0 0 1-20.789698 3.292784c-6.241904-4.576531-7.939247-13.114193-4.151945-19.683777l0.830189-1.286744 78.320515-108.779769c-3.988105-3.879212-10.986271-9.880351-16.570817-13.94738-12.342946-8.99022-28.70297-5.782353-45.678392 12.005276l-5.814322 6.265881-4.139957 4.579528a703.756738 703.756738 0 0 0-6.910252 7.840343 788.999493 788.999493 0 0 0-35.333495 43.732293c-31.092636 41.459512-39.387536 65.176351-40.330614 107.506014-0.283723 12.742556 0.731286 27.755895 2.875192 44.50254 2.799266 21.856656 7.297873 45.179879 12.65664 67.959633l1.677362 6.990174 3.069003 12.077206c0.408601 1.542494 0.7163 2.677385 0.909112 3.369709 2.220831 7.962224-2.418638 16.217163-10.361881 18.435996-7.944242 2.219832-16.183196-2.435621-18.404027-10.398845l-1.349682-5.031086-2.020028-7.899286c-0.83918-3.360718-1.706334-6.933229-2.591469-10.694556-5.577553-23.709846-10.262978-48.001124-13.210099-71.020644-2.320734-18.119305-3.432648-34.566244-3.110962-48.981167 1.082942-48.622517 11.491778-78.383454 46.310774-124.813112a816.85529 816.85529 0 0 1 31.492246-39.367555l5.186935-6.031111a755.818896 755.818896 0 0 1 4.900214-5.586544l8.995216-9.942291 1.808234-1.926119c26.747879-29.618076 60.45696-37.059809 86.922115-17.784632 5.421705 3.949143 11.556714 9.025186 16.627762 13.703618l110.425163-153.373222c21.379122-29.694002 51.899317-34.772043 84.447532-10.910345 31.80594 23.319227 36.9669 53.323926 17.231173 82.39054l-1.418615 2.026022-51.251949 71.187481c8.643559 3.982111 17.842576 9.34887 27.444199 16.300082 21.132363 15.297061 28.113545 34.756059 23.942618 56.716612 8.561639 3.42066 17.231173 8.728476 25.701901 16.224156 21.603902 19.115333 25.340254 40.67328 14.555785 66.044504 38.709198 24.200367 40.624328 59.41198 13.416898 102.516886z" fill="#1C0E50" /><path d="M514.497561 118.883902c-104.07936 0-202.028706 39.901034-276.692792 110.37721-7.026139 6.631524-7.410763 17.773643-0.859161 24.885698a17.247157 17.247157 0 0 0 24.58599 0.869151C329.820909 190.556909 419.31751 154.099512 514.497561 154.099512c79.911961 0 155.818833 25.699902 218.53159 72.094595h-14.938411c-8.979231 0-16.359024 6.852308-17.196207 15.612753l-0.078923 1.663376c0 8.979231 6.851309 16.359024 15.611754 17.196207l1.663376 0.078923h64.353155c8.979231 0 16.359024-6.851309 17.196206-15.611754l0.078923-1.663376v-64.353155c0-9.540683-7.734447-17.27513-17.275129-17.27513-8.98023 0-16.359024 6.851309-17.196207 15.611754l-0.079922 1.663376 0.003996 27.563083C694.441834 150.3232 606.886338 118.883902 514.497561 118.883902z" fill="#7E41DF" /></svg>