<svg class="svg-icon" style="width: 1em;height: 1em;vertical-align: middle;fill: currentColor;overflow: hidden;" viewBox="0 0 1024 1024" version="1.1" xmlns="http://www.w3.org/2000/svg"><path d="M450.060488 708.807805a196.308293 195.80878 90 1 0 391.617561 0 196.308293 195.80878 90 1 0-391.617561 0Z" fill="#F4EDFF" /><path d="M662.676855 357.996394l14.676667 12.92338c30.684035 27.173463 49.887282 45.350712 85.249748 80.521366a409.524074 409.524074 0 0 1 29.283403 32.379379c35.142681 43.321694 58.171192 89.782322 71.441233 136.291902 8.027161 28.132527 11.01824 50.2779 11.313952 63.49899 0.213791 9.562661-7.407766 17.486923-17.022377 17.699715-9.614611 0.212792-17.582829-7.366806-17.795621-16.929467l-0.084918-1.933113c-0.159844-2.690373-0.549463-6.887274-1.295734-12.413877-1.640398-12.146139-4.422681-25.758845-8.618584-40.467481-12.048234-42.224765-33.002771-84.50048-65.043481-123.997908a374.825959 374.825959 0 0 0-26.803824-29.636059l-14.708636-14.563777c-30.677042-30.2075-49.334821-47.340769-83.616343-77.385428-30.510205-26.738888-49.673491-30.129577-69.809827-7.666514l2.122927 2.093956 69.855781 69.751882c6.729428 6.718439 6.729428 17.6128 0 24.33124-6.30784 6.298849-16.291091 6.693463-23.057482 1.180846l-1.308722-1.180846-69.856781-69.751883c-27.462181-27.421221-42.918088-31.618123-60.930497-16.750642-6.611543 5.456671-11.481787 11.023235-14.923427 16.498887 5.743391 4.420683 11.500769 9.462759 17.256148 15.079275l2.421636 2.397658 65.430103 65.690849c6.798361 6.826334 6.798361 17.892527 0 24.71886-6.373776 6.398751-16.460925 6.798361-23.298248 1.19883l-1.322708-1.19883-65.430103-65.691847c-5.890248-5.913225-11.474794-10.909346-16.785608-14.984367a17.013385 17.013385 0 0 1-2.53952-0.082919c-6.250896-0.668347-11.360905-4.594513-13.817507-9.906326-14.457881-6.278868-26.7259-3.977116-37.730154 7.070095-10.354888 10.396847-17.891528 20.245229-23.071469 29.172512l-0.175828 0.303703 99.425904 98.482825a17.166236 17.166236 0 0 1 0 24.439134c-6.387762 6.32782-16.495891 6.723434-23.349198 1.186841l-1.324706-1.186841-105.199267-104.198244a17.397011 17.397011 0 0 1-5.192928-5.143976l-86.349675-85.531474c-16.655735-16.49689-30.831891-16.605783-50.425756 2.802264-18.940503 18.761678-19.469986 32.508254-4.439664 48.304827l1.610427 1.642396L488.907551 725.761249a17.166236 17.166236 0 0 1 0 24.439133c-6.387762 6.32782-16.495891 6.723434-23.349198 1.186841l-1.324706-1.186841-110.562029-109.513053c-5.185936 3.87022-13.330981 10.779473-19.007438 16.425959-12.575719 12.507785-11.86841 31.831914 5.481646 54.505772l6.141003 7.796386 4.507598 5.574556a816.802341 816.802341 0 0 0 7.75243 9.33888 916.067403 916.067403 0 0 0 43.818208 48.410724c41.979005 43.141869 67.719867 56.946388 116.184539 65.706833 14.588753 2.637424 32.024726 4.1989 51.656554 4.780332 25.622978 0.759259 53.240008-0.161842 80.389495-2.167883l8.335859-0.653362 14.435903-1.324706c1.846197-0.187817 3.206868-0.334673 4.037057-0.429581 9.55367-1.098927 18.193233 5.71342 19.298154 15.215141 1.104921 9.50272-5.74439 18.096328-15.29806 19.195255l-6.026115 0.634381-9.444777 0.88014a943.128976 943.128976 0 0 1-12.759539 1.028995c-28.257405 2.086962-57.020316 3.047024-84.004964 2.247805-21.242256-0.630384-40.343602-2.340714-56.846486-5.3248-55.671633-10.062174-87.973089-27.385257-134.982182-75.696078a948.450779 948.450779 0 0 1-39.502423-43.219793l-5.986154-7.036129a877.20935 877.20935 0 0 1-5.527602-6.627528l-9.787442-12.108175-1.883161-2.420636c-29.16352-36.014829-31.579161-75.981799-4.615493-102.801608 5.522607-5.492636 12.469822-11.598673 18.767672-16.559829L172.762287 461.49632c-30.19751-29.91079-30.477237-65.835707 2.829237-98.82649 32.550213-32.241514 67.928663-32.710057 97.704585-4.796316l2.067981 1.993054 71.916769 71.234435c6.193951-9.350868 14.1312-19.102345 24.026536-29.036644 21.732777-21.818693 45.737335-26.115497 70.592063-16.802591 5.446681-8.93927 12.962341-17.660753 22.812722-25.791813 25.744859-21.249249 51.048148-21.71879 78.061767-4.952164 34.770045-39.7312 75.461307-35.470361 119.902908 3.478603z" fill="#1C0E50" /><path d="M543.469268 118.883902c104.07936 0 202.028706 39.901034 276.692792 110.37721 7.026139 6.631524 7.410763 17.773643 0.859161 24.885698a17.247157 17.247157 0 0 1-24.58599 0.869151C728.14592 190.556909 638.649319 154.099512 543.469268 154.099512c-79.911961 0-155.818833 25.699902-218.53159 72.094595h14.938412c8.979231 0 16.359024 6.852308 17.196207 15.612753l0.078923 1.663376c0 8.979231-6.851309 16.359024-15.611755 17.196207l-1.663375 0.078923h-64.353155c-8.979231 0-16.359024-6.851309-17.196207-15.611754l-0.078923-1.663376v-64.353155c0-9.540683 7.734447-17.27513 17.27513-17.27513 8.98023 0 16.359024 6.851309 17.196206 15.611754l0.079922 1.663376-0.003996 27.563083C363.524995 150.3232 451.080492 118.883902 543.469268 118.883902z" fill="#7E41DF" /></svg>